<svg width="144" height="64" viewBox="0 0 144 64" fill="none" xmlns="http://www.w3.org/2000/svg">
<path d="M0 63.0525V20.9314H15.0279V63.0525H0ZM26.5148 63.0525V38.6756C26.5148 36.8955 25.9678 35.5173 24.8738 34.541C23.7798 33.5074 22.4267 32.9906 20.8145 32.9906C19.663 32.9906 18.6553 33.2203 17.7917 33.6797C16.928 34.1391 16.2371 34.7995 15.7189 35.6608C15.2582 36.4648 15.0279 37.4697 15.0279 38.6756L9.15494 36.3499C9.15494 32.9619 9.90346 30.0619 11.4005 27.6501C12.8975 25.2382 14.9128 23.3719 17.4462 22.0511C19.9796 20.7304 22.8586 20.07 26.0829 20.07C28.9618 20.07 31.5529 20.7591 33.856 22.1373C36.2167 23.4581 38.088 25.3244 39.4699 27.7362C40.8518 30.148 41.5427 32.9906 41.5427 36.2638V63.0525H26.5148ZM53.0295 63.0525V38.6756C53.0295 36.8955 52.4826 35.5173 51.3886 34.541C50.2946 33.5074 48.9415 32.9906 47.3293 32.9906C46.2353 32.9906 45.2277 33.2203 44.3064 33.6797C43.4428 34.1391 42.7518 34.7995 42.2336 35.6608C41.773 36.4648 41.5427 37.4697 41.5427 38.6756L32.7332 38.245C32.8484 34.4549 33.6833 31.2104 35.2379 28.5114C36.7925 25.8125 38.9229 23.7452 41.6291 22.3096C44.3928 20.8165 47.502 20.07 50.9567 20.07C54.2387 20.07 57.1752 20.7591 59.7662 22.1373C62.3572 23.5155 64.3725 25.5253 65.8119 28.1669C67.309 30.751 68.0575 33.852 68.0575 37.4697V63.0525H53.0295Z" fill="#F0EFF4"/>
<path d="M75.8224 63.0525V20.9314H90.9367V63.0525H75.8224ZM83.3364 16.0215C81.0908 16.0215 79.2195 15.275 77.7225 13.782C76.2255 12.2315 75.477 10.3078 75.477 8.01077C75.477 5.7712 76.2255 3.87618 77.7225 2.32571C79.2195 0.775236 81.0908 0 83.3364 0C85.6971 0 87.5972 0.775236 89.0366 2.32571C90.5337 3.87618 91.2822 5.7712 91.2822 8.01077C91.2822 10.3078 90.5337 12.2315 89.0366 13.782C87.5972 15.275 85.6971 16.0215 83.3364 16.0215Z" fill="#F0EFF4"/>
<path d="M120.508 64C115.959 64 111.9 63.0525 108.33 61.1575C104.818 59.205 102.025 56.5635 99.9527 53.2328C97.8798 49.8448 96.8434 46.0547 96.8434 41.8627C96.8434 37.6707 97.8511 33.9381 99.8663 30.6649C101.939 27.3342 104.76 24.7214 108.33 22.8264C111.9 20.8739 115.931 19.8977 120.422 19.8977C124.913 19.8977 128.915 20.8739 132.427 22.8264C135.997 24.7214 138.818 27.3342 140.891 30.6649C142.964 33.9381 144 37.6707 144 41.8627C144 46.0547 142.964 49.8448 140.891 53.2328C138.876 56.5635 136.083 59.205 132.513 61.1575C129.001 63.0525 124.999 64 120.508 64ZM120.422 50.6487C122.091 50.6487 123.531 50.3042 124.74 49.6151C126.007 48.8686 126.986 47.8349 127.677 46.5141C128.368 45.1934 128.713 43.6716 128.713 41.9489C128.713 40.2261 128.339 38.7331 127.59 37.4697C126.899 36.1489 125.949 35.144 124.74 34.4549C123.531 33.7084 122.091 33.3351 120.422 33.3351C118.81 33.3351 117.37 33.7084 116.103 34.4549C114.837 35.2014 113.858 36.2351 113.167 37.5559C112.476 38.8192 112.13 40.3122 112.13 42.035C112.13 43.7003 112.476 45.1934 113.167 46.5141C113.858 47.8349 114.837 48.8686 116.103 49.6151C117.37 50.3042 118.81 50.6487 120.422 50.6487Z" fill="#F0EFF4"/>
</svg>
